HIERARCHY
ROOT Hips
{
	OFFSET -0.001795 -0.223333 0.028219
	CHANNELS 6 Xposition Yposition Zposition Zrotation Yrotation Xrotation 
	JOINT LeftUpLeg
	{
		OFFSET 0.069520 -0.091406 -0.006815
		CHANNELS 3 Zrotation Yrotation Xrotation
		JOINT LeftLeg
		{
			OFFSET 0.034277 -0.375199 -0.004496
			CHANNELS 3 Zrotation Yrotation Xrotation
			JOINT LeftFoot
			{
				OFFSET -0.013596 -0.397961 -0.043693
				CHANNELS 3 Zrotation Yrotation Xrotation
				JOINT LeftToe
				{
					OFFSET 0.026358 -0.055791 0.119288
					CHANNELS 3 Zrotation Yrotation Xrotation
					End Site
					{
						OFFSET 0.000000 0.000000 0.000000
					}
				}
			}
		}
	}
	JOINT RightUpLeg
	{
		OFFSET -0.067670 -0.090522 -0.004320
		CHANNELS 3 Zrotation Yrotation Xrotation
		JOINT RightLeg
		{
			OFFSET -0.038290 -0.382569 -0.008850
			CHANNELS 3 Zrotation Yrotation Xrotation
			JOINT RightFoot
			{
				OFFSET 0.015774 -0.398415 -0.042312
				CHANNELS 3 Zrotation Yrotation Xrotation
				JOINT RightToe
				{
					OFFSET -0.025372 -0.048144 0.123348
					CHANNELS 3 Zrotation Yrotation Xrotation
					End Site
					{
						OFFSET 0.000000 0.000000 0.000000
					}
				}
			}
		}
	}
	JOINT Spine
	{
		OFFSET -0.002533 0.108963 -0.026696
		CHANNELS 3 Zrotation Yrotation Xrotation
		JOINT Spine1
		{
			OFFSET 0.005487 0.135180 0.001092
			CHANNELS 3 Zrotation Yrotation Xrotation
			JOINT Spine2
			{
				OFFSET 0.001457 0.052922 0.025425
				CHANNELS 3 Zrotation Yrotation Xrotation
				JOINT Neck
				{
					OFFSET -0.002778 0.213870 -0.042857
					CHANNELS 3 Zrotation Yrotation Xrotation
					JOINT Head
					{
						OFFSET 0.005152 0.064970 0.051349
						CHANNELS 3 Zrotation Yrotation Xrotation
						End Site
						{
							OFFSET 0.000000 0.000000 0.000000
						}
					}
				}
				JOINT LeftShoulder
				{
					OFFSET 0.078845 0.121749 -0.034090
					CHANNELS 3 Zrotation Yrotation Xrotation
					JOINT LeftArm
					{
						OFFSET 0.090977 0.030469 -0.008868
						CHANNELS 3 Zrotation Yrotation Xrotation
						JOINT LeftForeArm
						{
							OFFSET 0.259612 -0.012772 -0.027456
							CHANNELS 3 Zrotation Yrotation Xrotation
							JOINT LeftHand
							{
								OFFSET 0.249234 0.008986 -0.001171
								CHANNELS 3 Zrotation Yrotation Xrotation
								End Site
								{
									OFFSET 0.000000 0.000000 0.000000
								}
							}
						}
					}
				}
				JOINT RightShoulder
				{
					OFFSET -0.081759 0.118833 -0.038615
					CHANNELS 3 Zrotation Yrotation Xrotation
					JOINT RightArm
					{
						OFFSET -0.096012 0.032551 -0.009143
						CHANNELS 3 Zrotation Yrotation Xrotation
						JOINT RightForeArm
						{
							OFFSET -0.253742 -0.013329 -0.021401
							CHANNELS 3 Zrotation Yrotation Xrotation
							JOINT RightHand
							{
								OFFSET -0.255298 0.007772 -0.005559
								CHANNELS 3 Zrotation Yrotation Xrotation
								End Site
								{
									OFFSET 0.000000 0.000000 0.000000
								}
							}
						}
					}
				}
			}
		}
	}
}
MOTION
Frames: 7
Frame Time: 0.050000
0.023709 0.950062 0.018015 -1.916281 6.068403 0.055495 3.963789 -0.146740 -0.935205 -4.161380 0.392123 -1.997645 6.681282 15.847759 12.928639 0.000000 0.000000 0.000000 -1.433575 0.532136 -5.861502 2.396484 -0.225315 4.933125 1.457228 -1.536554 12.733509 0.000000 0.000000 0.000000 2.391672 -2.010325 25.411388 -9.880283 2.991979 -24.843980 -7.157205 -0.999531 28.339552 3.232289 -0.664709 -18.857857 0.000000 0.000000 0.000000 -16.269696 -21.695497 9.625685 -37.516637 -28.058315 1.930814 12.066765 -31.438066 -2.052736 0.000000 0.000000 0.000000 27.360697 -0.665466 -1.099987 62.452223 9.816889 -3.836202 17.891831 38.099041 8.738778 0.000000 0.000000 0.000000 
0.023919 0.949545 0.019920 -1.897595 6.095625 -0.306786 4.089434 -0.118565 -0.393898 -4.419042 0.411376 -2.019179 6.674592 15.799791 12.681119 0.000000 0.000000 0.000000 -1.618108 0.454244 -5.038277 2.690268 -0.278268 4.417596 1.465860 -1.455016 12.541682 0.000000 0.000000 0.000000 2.344935 -2.019867 25.642473 -10.134165 3.083974 -24.502699 -6.104757 1.429222 28.258809 4.373375 -1.083356 -18.510849 0.000000 0.000000 0.000000 -17.028580 -18.331906 7.403598 -39.210516 -22.645473 0.499587 7.475865 -32.907437 -0.954172 0.000000 0.000000 0.000000 28.067050 -0.989875 -0.412548 61.278603 11.142537 -3.348699 16.417567 37.041463 8.178976 0.000000 0.000000 0.000000 
0.024164 0.948416 0.021307 -1.659690 6.410755 0.099224 3.653830 -0.115462 -0.427426 -4.111855 0.383214 -2.600354 6.561200 15.613811 12.413350 0.000000 0.000000 0.000000 -2.019814 0.437781 -5.008975 2.940178 -0.324761 3.853738 1.271314 -1.665936 12.176715 0.000000 0.000000 0.000000 2.062730 -1.954114 25.465735 -9.985855 3.043387 -24.543759 -5.253042 3.740924 28.322954 5.213178 -1.270326 -18.375946 0.000000 0.000000 0.000000 -17.020535 -15.287040 5.233789 -41.399352 -17.306185 -1.014163 4.417080 -32.354293 -0.208373 0.000000 0.000000 0.000000 28.433545 -1.379572 0.286619 60.084663 11.896782 -3.209642 16.162527 37.379523 8.427977 0.000000 0.000000 0.000000 
0.024479 0.947560 0.021893 -1.773150 7.484569 0.100986 3.834425 -0.145881 -0.768932 -4.166557 0.377332 -2.187115 6.120885 14.924381 11.761788 0.000000 0.000000 0.000000 -1.663107 0.437073 -4.889622 2.557571 -0.274691 3.901702 0.706730 -2.511814 11.872410 0.000000 0.000000 0.000000 2.193559 -2.096588 25.907152 -9.887210 3.018322 -24.710657 -4.323662 5.339066 28.042506 5.761646 -1.248329 -18.666363 0.000000 0.000000 0.000000 -17.157329 -12.707097 3.342324 -43.877955 -12.849247 -2.401225 2.868777 -30.916900 0.095999 0.000000 0.000000 0.000000 28.826553 -1.921201 0.733824 58.872140 12.052037 -3.317351 16.201136 37.459361 8.624437 0.000000 0.000000 0.000000 
0.025127 0.947676 0.021939 -1.696209 8.182621 0.272103 3.482445 -0.173537 -1.317775 -3.718155 0.339496 -1.670412 5.822404 14.490700 11.550355 0.000000 0.000000 0.000000 -1.965473 0.443623 -5.143526 2.899522 -0.335966 4.179057 0.398547 -3.038604 11.946203 0.000000 0.000000 0.000000 2.360853 -2.206463 26.142643 -9.921407 2.978856 -25.319922 -3.846877 6.762324 28.285603 6.255015 -1.215858 -19.160391 0.000000 0.000000 0.000000 -16.968637 -11.140480 2.104568 -45.312554 -9.898248 -3.450499 2.608617 -28.987095 0.055154 0.000000 0.000000 0.000000 29.311803 -2.630771 0.974987 58.302615 12.271549 -3.440713 15.669992 38.050859 8.799420 0.000000 0.000000 0.000000 
0.025907 0.947427 0.021572 -1.698051 9.114230 0.213489 3.325545 -0.186532 -1.519643 -3.473614 0.313346 -1.432334 5.402603 13.850064 11.195860 0.000000 0.000000 0.000000 -1.906951 0.443039 -5.162599 2.754793 -0.321321 4.482285 -0.054042 -3.771074 11.873386 0.000000 0.000000 0.000000 2.393072 -2.306409 26.425479 -9.912560 2.952975 -25.656354 -3.164267 7.433963 28.249071 6.274642 -1.016345 -19.285650 0.000000 0.000000 0.000000 -16.521064 -10.080559 1.314170 -46.568292 -7.899809 -4.238116 2.453802 -28.667627 0.011792 0.000000 0.000000 0.000000 29.714041 -3.147083 1.089171 57.563804 12.030234 -3.709023 15.315692 38.213243 8.816430 0.000000 0.000000 0.000000 
0.026654 0.947690 0.021033 -1.540198 10.175712 0.162507 3.174971 -0.218520 -2.036078 -3.536977 0.306533 -0.653552 4.899654 13.113033 10.971621 0.000000 0.000000 0.000000 -2.247532 0.405284 -4.945714 3.013307 -0.377867 4.401166 -0.494337 -4.528383 12.038070 0.000000 0.000000 0.000000 2.433837 -2.356296 26.205397 -10.212964 3.024124 -25.634893 -2.863354 7.552265 28.185271 6.115795 -0.826048 -19.119955 0.000000 0.000000 0.000000 -16.452382 -9.355616 0.774399 -46.655808 -7.494208 -4.348617 1.976393 -28.321130 0.077354 0.000000 0.000000 0.000000 29.577597 -3.562244 1.070176 57.318218 11.726148 -3.902102 15.227472 38.941727 9.083852 0.000000 0.000000 0.000000 
